<svg id="Layer_1" data-name="Layer 1" xmlns="http://www.w3.org/2000/svg" viewBox="0 0 754.22 189.89"><defs><style>.cls-1{fill:#fff;}</style></defs><ellipse class="cls-1" cx="53.68" cy="186.04" rx="43.74" ry="3.84"/><path class="cls-1" d="M72.61,208.38c5.71-.32,53.64-23.17,53.64-61.37a53.68,53.68,0,0,0-107.36,0C18.89,185.21,66.86,208.06,72.61,208.38Zm0-88.28A26.91,26.91,0,1,1,45.73,147v0A26.91,26.91,0,0,1,72.57,120.1ZM94.5,59.46a2.25,2.25,0,0,0,2.25-2.25v-1.6a2.25,2.25,0,0,0-2.25-2.25h-.9v-.17a6.72,6.72,0,0,0-6.72-6.72H58.31a6.72,6.72,0,0,0-6.72,6.72h0v.17h-.9a2.25,2.25,0,0,0-2.25,2.25v1.6a2.25,2.25,0,0,0,2.25,2.25h.9V60.7h-.9A2.25,2.25,0,0,0,48.44,63v1.59a2.25,2.25,0,0,0,2.25,2.25h.9v1.25h-.9a2.24,2.24,0,0,0-2.25,2.25v1.59a2.25,2.25,0,0,0,2.25,2.25h.9v.17a6.71,6.71,0,0,0,4.81,6.41V90.83q3.1-.89,6.27-1.45V81.17h6.44v7.48h6.3V81.21h6.45v8.1a53.37,53.37,0,0,1,6.26,1.39V81.07a6.92,6.92,0,0,0,5.44-6.58v-.17h.9a2.25,2.25,0,0,0,2.25-2.26V70.47a2.25,2.25,0,0,0-2.25-2.25h-.9V67h.9a2.24,2.24,0,0,0,2.25-2.25V63.13a2.25,2.25,0,0,0-2.25-2.25h-.9V59.63ZM58,53.19a.31.31,0,0,1,.27-.35H86.88a.35.35,0,0,1,.34.35h0V74.32a.37.37,0,0,1-.34.34H58.31a.35.35,0,0,1-.35-.34h0Zm-1.56,79a21.54,21.54,0,0,1,6.27-4.74v39.2a21.54,21.54,0,0,1-6.27-4.74Zm25.42-5.06a22,22,0,0,1,6.27,4.37v31.17a22.27,22.27,0,0,1-6.3,4.4ZM72.61,125a19.28,19.28,0,0,1,2.84.2v43.57a26.93,26.93,0,0,1-2.84.21,23.54,23.54,0,0,1-3.46-.31V125.47a17.91,17.91,0,0,1,3.42-.45Z" transform="translate(-18.89 -46.47)"/><path class="cls-1" d="M223.22,114.42h26.05c15.24,0,25.11,7.86,25.11,21.19v.25c0,14.37-11,21.88-26,21.88H240v17.32h-16.8Zm24.84,30.09c5.88,0,9.62-3.18,9.62-7.93v-.2c0-5.16-3.74-7.87-9.69-7.87h-8v16Z" transform="translate(-18.89 -46.47)"/><path class="cls-1" d="M346.41,114.42h16.66v45.85h29.37V175h-46Z" transform="translate(-18.89 -46.47)"/><path class="cls-1" d="M485.74,114h16.17l25.8,61h-18l-4.33-10.91H481.93L477.6,175H460ZM500.46,151l-6.76-17.15L486.78,151Z" transform="translate(-18.89 -46.47)"/><path class="cls-1" d="M596.73,162.8l30.38-34.29H597.77V114.42h52.44v12.12l-30.38,34.25h30.38V175H596.73Z" transform="translate(-18.89 -46.47)"/><path class="cls-1" d="M723.9,114.42h48.73v14.2H740.56v9.25h29.09v13.22H740.56v9.63h32.55V175H723.94Z" transform="translate(-18.89 -46.47)"/></svg>